# xmcd
#
# Track frame offsets: 
#        150
#        17099
#        35248
#        54064
#        68975
#        83116
#        96867
#        118648
#        133033
#        146370
#        165228
#        186772
#
# Disc length: 2739 seconds
#
# Revision: 0
# Processed by: cddbd v1.4PL0 Copyright (c) Steve Scherf et al.
# Submitted via: ExactAudioCopy v0.90b3
#
DISCID=9a0ab10c
DTITLE=Mike Ireland and Holler - Try Again
DYEAR=2002
DGENRE=Country
TTITLE0=Welcome Back
TTITLE1=Right Back Where I Started
TTITLE2=Mr. Rain
TTITLE3=The Other Way
TTITLE4=Tonight
TTITLE5=Sweet Sweetheart
TTITLE6=I'd Like To
TTITLE7=Love's The Hardest Thing You'll Ever Do
TTITLE8=Close Enough To Break Each Other's Hearts
TTITLE9=Try Again
TTITLE10=Life Has Its Little Ups and Downs
TTITLE11=Let Me Hold You
EXTD=
EXTT0=
EXTT1=
EXTT2=
EXTT3=
EXTT4=
EXTT5=
EXTT6=
EXTT7=
EXTT8=
EXTT9=
EXTT10=
EXTT11=
PLAYORDER=
